<svg viewBox="0 0 71.16115015974441 70.57" xmlns="http://www.w3.org/2000/svg" data-name="Layer 2" id="Layer_2" style="max-height: 500px" width="71.16115015974441" height="70.57">
  <defs>
    <style>
      .cls-1 {
        fill: #024ad8;
      }

      .cls-2 {
        fill: #fff;
      }
    </style>
  </defs>
  <g data-name="Layer 1" id="Layer_1-2">
    <g>
      <g>
        <circle transform="translate(-2.07 68.37) rotate(-86.52)" r="35.29" cy="35.29" cx="35.29" class="cls-2"/>
        <path d="M35.29,67.97c-.33,0-.65,0-.97-.02l6.68-18.36h9.19c1.61,0,3.38-1.24,3.94-2.76l7.25-19.9c1.18-3.26-.68-5.93-4.15-5.93h-12.75l-10.7,29.4h0l-6.07,16.67c-14.39-3.42-25.09-16.36-25.09-31.79S12.7,7.66,26.46,3.81l-6.26,17.2h0l-10.41,28.58h6.93l8.85-24.29h5.2l-8.85,24.29h6.92l8.25-22.66c1.19-3.26-.68-5.93-4.14-5.93h-5.82l6.69-18.37c.49-.02.98-.03,1.47-.03,18.05,0,32.68,14.63,32.68,32.68s-14.63,32.68-32.68,32.68ZM55.06,25.29h-5.2l-7.29,20h5.2l7.29-20h0Z" class="cls-1"/>
      </g>
      <g>
        <path d="M85.31,44.89c-.2,0-.29-.1-.29-.31l.15-9.98-.15-9c0-.21.1-.31.29-.31h2.14c.21,0,.31.1.31.31l-.14,8.89.14,8.4h8.57c.21,0,.31.1.31.31v1.39c0,.09-.03.17-.08.22s-.13.08-.22.08h-11.02Z"/>
        <path d="M99.17,44.89c-.2,0-.29-.1-.29-.31l.15-9.69-.15-9.3c0-.21.1-.31.29-.31h2.13c.21,0,.31.1.31.31l-.15,9.3.15,9.69c0,.21-.1.31-.31.31h-2.13Z"/>
        <path d="M105.54,44.89c-.2,0-.29-.1-.29-.31l.15-9.48-.15-9.51c0-.21.1-.31.29-.31h11.44c.09,0,.17.03.22.08.06.06.08.13.08.22v1.39c0,.09-.03.17-.08.22-.06.06-.13.08-.22.08h-8.99l-.14,7h8.67c.09,0,.17.03.22.08.06.06.08.13.08.22v1.39c0,.09-.03.17-.08.22-.06.06-.13.08-.22.08h-8.67l.14,8.29c0,.21-.1.31-.31.31h-2.14Z"/>
        <path d="M120.26,44.89c-.2,0-.29-.1-.29-.31l.15-9.83-.15-9.16c0-.21.1-.31.29-.31h11.79c.09,0,.17.03.22.08.06.06.08.13.08.22v1.39c0,.09-.03.17-.08.22-.06.06-.13.08-.22.08h-9.34l-.14,6.13h8.81c.09,0,.17.03.22.08.06.06.08.13.08.22v1.39c0,.09-.03.17-.08.22-.06.06-.13.08-.22.08h-8.81l.14,7.46h9.56c.21,0,.31.1.31.31v1.39c0,.09-.03.17-.08.22s-.13.08-.22.08h-12.01Z"/>
      </g>
    </g>
  </g>
</svg>